<svg xmlns="http://www.w3.org/2000/svg" width="48" height="48" viewBox="0 0 48 48">
  <path d="M44.1,11.4H9.5L8.3,7.7a.7.7,0,0,0-.5-.4H3.5A1.1,1.1,0,0,0,2.4,8.4,1,1,0,0,0,3.5,9.5a1.1,1.1,0,0,0,1.1-.8H6.9l1,2.6,5.3,18.8h.1l-2.6,6.3a3.2,3.2,0,0,1,1.4-.3h.2l2.6-6H40.7a1.1,1.1,0,0,0,1-.8l3.4-16.7A1,1,0,0,0,44.1,11.4Z" fill="#662d91"/>
  <path d="M33.5,38.9a3.9,3.9,0,0,1,1-1.6H14.7a2.9,2.9,0,0,1,.9,1.6Z" fill="#662d91"/>
  <path d="M10.9,37A3.2,3.2,0,0,0,9,39.9a3.2,3.2,0,0,0,6.3,0c0-.3-.1-.6-.1-.8a3.7,3.7,0,0,0-.8-1.4,3.5,3.5,0,0,0-2.1-1h-.2A2.7,2.7,0,0,0,10.9,37Z" fill="#662d91"/>
  <path d="M33.9,39.9a3.2,3.2,0,0,0,6.3,0A3.2,3.2,0,0,0,37,36.7a3.2,3.2,0,0,0-2.2,1,2.7,2.7,0,0,0-.8,1.4C34,39.3,33.9,39.6,33.9,39.9Z" fill="#662d91"/>
</svg>
